<svg xmlns="http://www.w3.org/2000/svg" xmlns:xlink="http://www.w3.org/1999/xlink" width="41" height="41" viewBox="0 0 41 41"><defs><path id="5hqia" d="M850.35 2056.17v2.83h-9.81v-2.23l4.72-4.41c.45-.43.76-.8.91-1.1.16-.32.24-.62.24-.94 0-.4-.14-.72-.42-.95-.27-.23-.67-.34-1.2-.34a2.58 2.58 0 0 0-2.25 1.22l-2.65-1.47a5.18 5.18 0 0 1 2.07-1.93c.89-.47 1.94-.7 3.15-.7.96 0 1.81.15 2.55.47.74.3 1.31.75 1.73 1.34.41.58.62 1.25.62 2.02 0 .69-.15 1.33-.44 1.94-.3.6-.86 1.29-1.7 2.06l-2.38 2.2zM845 2072a19 19 0 1 1 0-38 19 19 0 0 1 0 38zm0-35a16 16 0 1 0 0 32 16 16 0 0 0 0-32z"/><linearGradient id="5hqib" x1="845" x2="845" y1="2072" y2="2034" gradientUnits="userSpaceOnUse"><stop offset="0" stop-color="#653e9b"/><stop offset="1" stop-color="#e555c2"/></linearGradient></defs><g><g transform="translate(-824 -2032)"><use fill="url(#5hqib)" xlink:href="#5hqia"/></g></g></svg>