<svg xmlns="http://www.w3.org/2000/svg" xmlns:xlink="http://www.w3.org/1999/xlink" width="43" height="44" viewBox="0 0 43 44"><defs><path id="t2hna" d="M436 1516h-40v-40h2.5v37.5h6.25v-2.5h2.5v2.5h2.5v-2.5h2.5v2.5h2.5v-2.5h2.5v2.5h2.5v-2.5h2.5v2.5h2.5v-2.5h2.5v2.5h2.5v-2.5h2.5v2.5H436zm-35-7.5h-2.5v-2.5h2.5zm0-5h-2.5v-2.5h2.5zm0-5h-2.5v-2.5h2.5zm0-5h-2.5v-2.5h2.5zm0-5h-2.5v-2.5h2.5zm0-5h-2.5v-2.5h2.5zm11.25 25h-7.5V1491h7.5zm-5-2.5h2.5v-12.5h-2.5zm15 2.5h-7.5V1481h7.5zm-5-2.5h2.5v-22.5h-2.5zm15 2.5h-7.5V1486h7.5zm-5-2.5h2.5v-17.5h-2.5z"/><linearGradient id="t2hnb" x1="416" x2="416" y1="1516" y2="1476" gradientUnits="userSpaceOnUse"><stop offset="0" stop-color="#e555c2"/><stop offset="1" stop-color="#503a95"/></linearGradient></defs><g><g transform="translate(-394 -1474)"><use fill="#4dffba" xlink:href="#t2hna"/><use fill="url(#t2hnb)" xlink:href="#t2hna"/></g></g></svg>