<?xml version="1.0" encoding="UTF-8" standalone="no"?>
<svg
   xmlns:dc="http://purl.org/dc/elements/1.1/"
   xmlns:cc="http://creativecommons.org/ns#"
   xmlns:rdf="http://www.w3.org/1999/02/22-rdf-syntax-ns#"
   xmlns:svg="http://www.w3.org/2000/svg"
   xmlns="http://www.w3.org/2000/svg"
   xmlns:xlink="http://www.w3.org/1999/xlink"
   xmlns:sodipodi="http://sodipodi.sourceforge.net/DTD/sodipodi-0.dtd"
   xmlns:inkscape="http://www.inkscape.org/namespaces/inkscape"
   width="40.000145"
   height="39.005558"
   viewBox="0 0 40.000145 39.005558"
   version="1.1"
   id="svg18"
   sodipodi:docname="edit.svg"
   inkscape:version="0.92.2 (30a58d1, 2017-08-07)">
  <metadata
     id="metadata22">
    <rdf:RDF>
      <cc:Work
         rdf:about="">
        <dc:format>image/svg+xml</dc:format>
        <dc:type
           rdf:resource="http://purl.org/dc/dcmitype/StillImage" />
      </cc:Work>
    </rdf:RDF>
  </metadata>
  <sodipodi:namedview
     pagecolor="#ffffff"
     bordercolor="#666666"
     borderopacity="1"
     objecttolerance="10"
     gridtolerance="10"
     guidetolerance="10"
     inkscape:pageopacity="0"
     inkscape:pageshadow="2"
     inkscape:window-width="1920"
     inkscape:window-height="1026"
     id="namedview20"
     showgrid="false"
     inkscape:zoom="7.7617302"
     inkscape:cx="15.978041"
     inkscape:cy="4.7656374"
     inkscape:window-x="0"
     inkscape:window-y="22"
     inkscape:window-maximized="1"
     inkscape:current-layer="svg18" />
  <defs
     id="defs8">
    <path
       id="1ofwa"
       d="m 434,1243 h -40 v -35.1 h 20 v 2.6 h -17.5 v 29.9 h 35 v -18.2 h 2.5 z m -18.6,-12.3 -2.36,-4.9 -4.71,-2.46 14.48,-15.06 1.77,1.84 -12.03,12.51 2.36,1.23 1.17,2.45 12.04,-12.52 1.76,1.84 z m 16.25,-16.9 -7.07,-7.36 0.88,-0.92 a 4.87,4.87 0 0 1 7.08,0 5.27,5.27 0 0 1 1.46,3.68 c 0,1.39 -0.52,2.7 -1.46,3.68 z m -3.3,-7.11 3.07,3.18 a 2.7,2.7 0 0 0 -0.65,-2.5 2.47,2.47 0 0 0 -2.42,-0.68 z m -25.35,29.56 3.44,-10.74 2.37,0.82 -1.86,5.8 5.59,-1.92 0.79,2.46 z"
       inkscape:connector-curvature="0" />
    <linearGradient
       id="1ofwb"
       x1="414"
       x2="414"
       y1="1243"
       y2="1204"
       gradientUnits="userSpaceOnUse">
      <stop
         offset="0"
         stop-color="#e555c2"
         id="stop3" />
      <stop
         offset="1"
         stop-color="#503a95"
         id="stop5" />
    </linearGradient>
  </defs>
  <g
     id="g16"
     transform="translate(-2,-0.99444315)">
    <g
       transform="translate(-392,-1203)"
       id="g14">
      <use
         xlink:href="#1ofwa"
         id="use10"
         style="fill:#27a9e0"
         x="0"
         y="0"
         width="100%"
         height="100%" />
      <use
         xlink:href="#1ofwa"
         id="use12"
         style="fill:url(#1ofwb)"
         x="0"
         y="0"
         width="100%"
         height="100%" />
    </g>
  </g>
</svg>
