<svg xmlns="http://www.w3.org/2000/svg" xmlns:xlink="http://www.w3.org/1999/xlink" width="45" height="49" viewBox="0 0 45 49"><defs><path id="p355a" d="M1283.15 1516.23c-5.85 0-11.7-2.24-16.16-6.72l2.02-2.03a19.94 19.94 0 0 0 28.29 0 20.24 20.24 0 0 0 0-28.46l2.02-2.04a23.13 23.13 0 0 1 0 32.53 22.72 22.72 0 0 1-16.17 6.72zm0-5.74a17.22 17.22 0 0 1-17.15-17.25c0-9.52 7.7-17.25 17.14-17.25 9.46 0 17.15 7.73 17.15 17.25 0 9.5-7.7 17.25-17.15 17.25zm0-31.63a14.35 14.35 0 0 0-14.3 14.38c0 7.92 6.42 14.37 14.3 14.37 7.87 0 14.28-6.45 14.28-14.37 0-7.93-6.41-14.38-14.29-14.38zm7.14 43.13H1276v-2.88h14.29zm-6.51-16.23l1.45-10.19-6.15-3.4 3.54-4.8-.56-.23-4.98 1.26-3.2-2.69 1.84-2.2 2.07 1.74 4.45-1.12 4.91 1.91-3.82 5.2 5 2.77-.55 3.95 2.13-2.05 1.85-7.54 2.77.69-2.04 8.35zm-5.31-4.68l-2.81-.5.54-3.01-3.21-.36.31-2.86 6.25.7z"/><linearGradient id="p355b" x1="1286" x2="1286" y1="1521.99" y2="1475.99" gradientUnits="userSpaceOnUse"><stop offset="0" stop-color="#e555c2"/><stop offset="1" stop-color="#503a95"/></linearGradient></defs><g><g transform="translate(-1265 -1474)"><use fill="#4dffba" xlink:href="#p355a"/><use fill="url(#p355b)" xlink:href="#p355a"/></g></g></svg>