<?xml version="1.0" encoding="utf-8"?>
<!-- Generator: Adobe Illustrator 22.0.1, SVG Export Plug-In . SVG Version: 6.00 Build 0)  -->
<svg version="1.1" id="Слой_1" xmlns="http://www.w3.org/2000/svg" xmlns:xlink="http://www.w3.org/1999/xlink" x="0px" y="0px"
	 viewBox="0 0 24 24" style="enable-background:new 0 0 24 24;" xml:space="preserve">
<style type="text/css">
	.st0{fill:#FFFFFF;}
</style>
<title  id="simpleicons-telegram-icon">Telegram icon</title>
<path class="st0" d="M9,20.8c-0.7,0-0.6-0.3-0.8-0.9L6.1,13l16.2-9.6"/>
<path class="st0" d="M9,20.8c0.6,0,0.8-0.3,1.1-0.6l2.9-2.9l-3.7-2.2"/>
<path class="st0" d="M9.4,15.2l8.9,6.6c1,0.6,1.7,0.3,2-0.9l3.6-17.1c0.4-1.5-0.6-2.2-1.5-1.7L1.1,10.3c-1.5,0.6-1.4,1.4-0.3,1.8
	l5.5,1.7l12.6-8c0.6-0.4,1.1-0.2,0.7,0.2"/>
</svg>
