<svg xmlns="http://www.w3.org/2000/svg" xmlns:xlink="http://www.w3.org/1999/xlink" width="41" height="41" viewBox="0 0 41 41"><defs><path id="grxta" d="M1228 2072a19 19 0 1 1 0-38 19 19 0 0 1 0 38zm0-35a16 16 0 1 0 0 32 16 16 0 0 0 0-32zm2.07 14.44c1.05.22 1.85.64 2.4 1.29.56.64.84 1.42.84 2.33 0 .74-.2 1.43-.6 2.07a4.25 4.25 0 0 1-1.84 1.54 7.1 7.1 0 0 1-3.05.58c-.88 0-1.76-.1-2.63-.32a7.82 7.82 0 0 1-2.26-.92l1.3-2.68a6.5 6.5 0 0 0 3.5 1.04c.6 0 1.08-.11 1.44-.34.36-.23.54-.55.54-.97 0-.82-.64-1.23-1.92-1.23h-1.5v-2.25l2.25-2.43h-4.96v-2.75h9.1v2.23z"/><linearGradient id="grxtb" x1="1228" x2="1228" y1="2072" y2="2034" gradientUnits="userSpaceOnUse"><stop offset="0" stop-color="#653e9b"/><stop offset="1" stop-color="#e555c2"/></linearGradient></defs><g><g transform="translate(-1207 -2032)"><use fill="url(#grxtb)" xlink:href="#grxta"/></g></g></svg>