<svg xmlns="http://www.w3.org/2000/svg" xmlns:xlink="http://www.w3.org/1999/xlink" width="42" height="42" viewBox="0 0 42 42"><defs><path id="u4mfa" d="M429 7076h-40v-40h40zm-37.5-2.5h35v-35h-35zm11.25-20h-2.5v-3.75h-3.75v-2.5h3.75v-3.75h2.5v3.75h3.75v2.5h-3.75zm18.75-3.75h-10v-2.5h10zm-7.5 12.5h-2.5v-2.5h2.5zm6.25 5h-2.5v-2.5h2.5zm-21.62.88l-1.76-1.76 2.86-2.87-2.86-2.87 1.76-1.77 2.87 2.87 2.87-2.87 1.76 1.77-2.86 2.87 2.86 2.87-1.76 1.76-2.87-2.86zm15 0l-1.76-1.76 7.5-7.5 1.76 1.76z"/><linearGradient id="u4mfb" x1="409" x2="409" y1="7076" y2="7036" gradientUnits="userSpaceOnUse"><stop offset="0" stop-color="#e555c2"/><stop offset="1" stop-color="#503a95"/></linearGradient></defs><g><g transform="translate(-388 -7035)"><use fill="#4dffba" xlink:href="#u4mfa"/><use fill="url(#u4mfb)" xlink:href="#u4mfa"/></g></g></svg>