<svg xmlns="http://www.w3.org/2000/svg" xmlns:xlink="http://www.w3.org/1999/xlink" width="49" height="43" viewBox="0 0 49 43"><defs><path id="d64xa" d="M986.06 7079a10.04 10.04 0 0 1-10.06-10 10.06 10.06 0 1 1 20.02-1.43h5.96c.7-4.84 4.9-8.57 9.96-8.57 5.55 0 10.06 4.49 10.06 10s-4.51 10-10.06 10c-5.06 0-9.26-3.73-9.96-8.57h-5.96c-.7 4.84-4.9 8.57-9.96 8.57zm0-17.14a7.17 7.17 0 0 0-7.19 7.14 7.17 7.17 0 0 0 7.2 7.14c3.96 0 7.18-3.2 7.18-7.14a7.17 7.17 0 0 0-7.19-7.14zm-1.44 7.14h-2.87a4.3 4.3 0 0 1 4.31-4.29v2.86c-.8 0-1.44.64-1.44 1.43zm25.88 0h-2.88a4.3 4.3 0 0 1 4.32-4.29v2.86c-.8 0-1.44.64-1.44 1.43zm1.44-7.14a7.17 7.17 0 0 0-7.19 7.14 7.17 7.17 0 0 0 7.19 7.14c3.96 0 7.18-3.2 7.18-7.14a7.17 7.17 0 0 0-7.18-7.14zm-33.1-2.58l-2.81-.56 2.85-14.16a5.74 5.74 0 0 1 5.74-5.56v2.86a2.87 2.87 0 0 0-2.87 2.85l-.03.28zm40.31 0l-2.9-14.57a2.87 2.87 0 0 0-2.88-2.85V7039a5.74 5.74 0 0 1 5.75 5.56l2.85 14.16z"/><linearGradient id="d64xb" x1="999" x2="999" y1="7079" y2="7039" gradientUnits="userSpaceOnUse"><stop offset="0" stop-color="#e555c2"/><stop offset="1" stop-color="#503a95"/></linearGradient></defs><g><g transform="translate(-974 -7037)"><use fill="#4dffba" xlink:href="#d64xa"/><use fill="url(#d64xb)" xlink:href="#d64xa"/></g></g></svg>