<?xml version="1.0" encoding="UTF-8"?>
<!DOCTYPE svg PUBLIC "-//W3C//DTD SVG 1.1//EN" "http://www.w3.org/Graphics/SVG/1.1/DTD/svg11.dtd">
<!-- Creator: CorelDRAW X7 -->
<svg xmlns="http://www.w3.org/2000/svg" xml:space="preserve" width="297mm" height="210mm" version="1.1" style="shape-rendering:geometricPrecision; text-rendering:geometricPrecision; image-rendering:optimizeQuality; fill-rule:evenodd; clip-rule:evenodd"
viewBox="0 0 29700 21000"
 xmlns:xlink="http://www.w3.org/1999/xlink">
 <defs>
  <style type="text/css">
   <![CDATA[
    .str0 {stroke:#FEFEFE;stroke-width:7.62;stroke-opacity:0.129412}
    .str8 {stroke:#FEFEFE;stroke-width:7.62;stroke-opacity:0.188235}
    .str5 {stroke:#FEFEFE;stroke-width:7.62;stroke-opacity:0.211765}
    .str4 {stroke:#FEFEFE;stroke-width:7.62;stroke-opacity:0.250980}
    .str7 {stroke:#FEFEFE;stroke-width:7.62;stroke-opacity:0.290196}
    .str3 {stroke:#FEFEFE;stroke-width:7.62;stroke-opacity:0.329412}
    .str2 {stroke:#FEFEFE;stroke-width:7.62;stroke-opacity:0.458824}
    .str6 {stroke:#FEFEFE;stroke-width:7.62;stroke-opacity:0.560784}
    .str1 {stroke:#FEFEFE;stroke-width:7.62}
    .fil1 {fill:none}
    .fil5 {fill:none}
    .fil10 {fill:#FEFEFE}
    .fil0 {fill:#FEFEFE;fill-opacity:0.129412}
    .fil9 {fill:#FEFEFE;fill-opacity:0.188235}
    .fil6 {fill:#FEFEFE;fill-opacity:0.211765}
    .fil4 {fill:#FEFEFE;fill-opacity:0.250980}
    .fil8 {fill:#FEFEFE;fill-opacity:0.290196}
    .fil3 {fill:#FEFEFE;fill-opacity:0.329412}
    .fil2 {fill:#FEFEFE;fill-opacity:0.458824}
    .fil7 {fill:#FEFEFE;fill-opacity:0.560784}
   ]]>
  </style>
 </defs>
 <g id="Слой_x0020_1">
  <metadata id="CorelCorpID_0Corel-Layer"/>
  <polygon class="fil0 str0" points="4743,13279 6351,11945 6140,13067 "/>
  <polygon class="fil1 str1" points="6351,11945 6923,13004 6140,13067 "/>
  <polygon class="fil1 str1" points="6351,11945 8108,12898 6923,13004 "/>
  <polygon class="fil2 str2" points="6351,11945 7833,11861 8108,12898 "/>
  <polygon class="fil3 str3" points="10225,11459 8108,12898 7833,11861 "/>
  <polygon class="fil1 str1" points="10225,11459 9505,12729 8108,12898 "/>
  <polygon class="fil0 str0" points="10225,11459 10860,12559 9505,12729 "/>
  <polygon class="fil1 str1" points="10225,11459 11728,11247 10860,12559 "/>
  <polygon class="fil2 str2" points="11728,11247 12955,11564 10860,12559 "/>
  <polygon class="fil1 str1" points="12955,11564 13569,12199 10860,12559 "/>
  <polygon class="fil4 str4" points="8214,7754 9463,6908 8786,7987 "/>
  <polygon class="fil1 str1" points="8214,7754 7748,8559 8786,7987 "/>
  <polygon class="fil1 str1" points="8786,7987 8087,9109 7748,8559 "/>
  <polygon class="fil1 str1" points="8087,9109 7643,9956 6881,9935 "/>
  <polygon class="fil4 str4" points="7748,8559 6881,9935 8087,9109 "/>
  <polygon class="fil1 str1" points="6881,9935 7092,10929 7643,9956 "/>
  <polygon class="fil4 str4" points="6881,9935 6161,11056 7092,10929 "/>
  <polygon class="fil1 str1" points="7092,10929 6351,11945 6161,11056 "/>
  <polygon class="fil1 str1" points="6161,11056 4743,13279 6351,11945 "/>
  <polygon class="fil1 str1" points="9463,6908 11855,8008 11770,6273 "/>
  <polygon class="fil1 str1" points="11770,6273 12828,6167 11855,8008 "/>
  <polygon class="fil1 str1" points="12828,6167 13633,6590 11855,8008 "/>
  <polygon class="fil1 str1" points="11855,8008 13844,6971 13633,6590 "/>
  <polygon class="fil1 str1" points="11855,8008 8786,7987 9463,6908 "/>
  <polygon class="fil1 str1" points="11855,8008 8087,9109 8786,7987 "/>
  <polygon class="fil1 str1" points="11855,8008 7643,9956 8087,9109 "/>
  <polygon class="fil1 str1" points="7092,10929 11855,8008 7643,9956 "/>
  <polygon class="fil1 str1" points="11855,8008 6351,11945 7092,10929 "/>
  <polygon class="fil1 str1" points="6351,11945 7833,11861 11855,8008 "/>
  <polygon class="fil1 str1" points="11855,8008 10225,11459 7833,11861 "/>
  <polygon class="fil5 str1" points="10225,11459 11728,11247 11855,8008 "/>
  <polygon class="fil1 str1" points="11855,8008 12955,11564 11728,11247 "/>
  <polygon class="fil1 str1" points="11855,8008 13739,8368 13844,6971 "/>
  <polygon class="fil1 str1" points="13739,8368 12955,11564 11855,8008 "/>
  <polygon class="fil6 str5" points="22959,13279 21351,11945 21562,13067 "/>
  <polygon class="fil1 str1" points="21351,11945 20779,13004 21562,13067 "/>
  <polygon class="fil6 str5" points="21351,11945 19594,12898 20779,13004 "/>
  <polygon class="fil1 str1" points="21351,11945 19869,11861 19594,12898 "/>
  <polygon class="fil3 str3" points="17477,11459 19594,12898 19869,11861 "/>
  <polygon class="fil1 str1" points="17477,11459 18197,12729 19594,12898 "/>
  <polygon class="fil6 str5" points="17477,11459 16842,12559 18197,12729 "/>
  <polygon class="fil1 str1" points="17477,11459 15974,11247 16842,12559 "/>
  <polygon class="fil1 str1" points="15974,11247 14747,11564 16842,12559 "/>
  <polygon class="fil7 str6" points="14747,11564 14133,12199 16842,12559 "/>
  <polygon class="fil8 str7" points="19488,7754 18239,6908 18916,7987 "/>
  <polygon class="fil1 str1" points="19488,7754 19954,8559 18916,7987 "/>
  <polygon class="fil1 str1" points="18916,7987 19615,9109 19954,8559 "/>
  <polygon class="fil1 str1" points="19615,9109 20059,9956 20821,9935 "/>
  <polygon class="fil8 str7" points="19954,8559 20821,9935 19615,9109 "/>
  <polygon class="fil1 str1" points="20821,9935 20610,10929 20059,9956 "/>
  <polygon class="fil1 str1" points="20821,9935 21541,11056 20610,10929 "/>
  <polygon class="fil8 str7" points="20610,10929 21351,11945 21541,11056 "/>
  <polygon class="fil1 str1" points="21541,11056 22959,13279 21351,11945 "/>
  <polygon class="fil1 str1" points="18239,6908 15847,8008 15932,6273 "/>
  <polygon class="fil1 str1" points="15932,6273 14874,6167 15847,8008 "/>
  <polygon class="fil9 str8" points="14874,6167 14069,6590 15847,8008 "/>
  <polygon class="fil1 str1" points="15847,8008 13858,6971 14069,6590 "/>
  <polygon class="fil1 str1" points="15847,8008 18916,7987 18239,6908 "/>
  <polygon class="fil1 str1" points="15847,8008 19615,9109 18916,7987 "/>
  <polygon class="fil1 str1" points="15847,8008 20059,9956 19615,9109 "/>
  <polygon class="fil1 str1" points="20610,10929 15847,8008 20059,9956 "/>
  <polygon class="fil1 str1" points="15847,8008 21351,11945 20610,10929 "/>
  <polygon class="fil1 str1" points="21351,11945 19869,11861 15847,8008 "/>
  <polygon class="fil1 str1" points="15847,8008 17477,11459 19869,11861 "/>
  <polygon class="fil1 str1" points="17477,11459 15974,11247 15847,8008 "/>
  <polygon class="fil1 str1" points="15847,8008 14747,11564 15974,11247 "/>
  <polygon class="fil1 str1" points="15847,8008 13963,8368 13858,6971 "/>
  <polygon class="fil1 str1" points="13963,8368 14747,11564 15847,8008 "/>
  <polygon class="fil9 str8" points="13569,12199 14133,12199 13844,10518 "/>
  <polygon class="fil1 str1" points="13963,8368 13739,8368 13858,6971 "/>
  <polygon class="fil9 str8" points="13844,10518 13963,8368 13739,8368 "/>
  <polygon class="fil1 str1" points="14747,11564 13844,10518 14133,12199 "/>
  <polygon class="fil1 str1" points="13844,10518 12955,11564 13569,12199 "/>
  <polygon class="fil1 str1" points="13569,12199 13872,12546 14133,12199 "/>
  <circle class="fil10" cx="11855" cy="8008" r="74"/>
  <circle class="fil10" cx="15847" cy="8008" r="74"/>
  <circle class="fil10" cx="13739" cy="8368" r="74"/>
  <circle class="fil10" cx="13858" cy="6971" r="74"/>
  <circle class="fil10" cx="13844" cy="10518" r="74"/>
  <circle class="fil10" cx="12955" cy="11564" r="74"/>
  <circle class="fil10" cx="10225" cy="11459" r="74"/>
  <circle class="fil10" cx="6351" cy="11945" r="74"/>
  <circle class="fil10" cx="8786" cy="7987" r="74"/>
  <circle class="fil10" cx="6881" cy="9935" r="74"/>
  <circle class="fil10" cx="9463" cy="6908" r="74"/>
  <circle class="fil10" cx="7092" cy="10929" r="74"/>
  <circle class="fil10" cx="13872" cy="12546" r="74"/>
  <circle class="fil10" cx="14747" cy="11564" r="74"/>
  <circle class="fil10" cx="17477" cy="11459" r="74"/>
  <circle class="fil10" cx="8140" cy="7754" r="74"/>
  <circle class="fil10" cx="18842" cy="7987" r="74"/>
  <circle class="fil10" cx="20610" cy="10929" r="74"/>
  <circle class="fil10" cx="22959" cy="13205" r="74"/>
  <circle class="fil10" cx="14874" cy="6167" r="74"/>
  <circle class="fil10" cx="18239" cy="6908" r="74"/>
  <circle class="fil10" cx="19519" cy="12898" r="74"/>
  <polygon class="fil5 str1" points="8214,7754 9463,6908 8786,7987 "/>
  <polygon class="fil5 str1" points="7748,8559 6881,9935 8087,9109 "/>
  <polygon class="fil5 str1" points="6881,9935 6161,11056 7092,10929 "/>
  <polygon class="fil5 str1" points="4743,13279 6351,11945 6140,13067 "/>
  <polygon class="fil5 str1" points="6351,11945 7833,11861 8108,12898 "/>
  <polygon class="fil5 str1" points="10225,11459 8108,12898 7833,11861 "/>
  <polygon class="fil5 str1" points="10225,11459 10860,12559 9505,12729 "/>
  <polygon class="fil5 str1" points="22959,13279 21351,11945 21562,13067 "/>
  <polygon class="fil5 str1" points="21351,11945 19594,12898 20779,13004 "/>
  <polygon class="fil5 str1" points="17477,11459 19594,12898 19869,11861 "/>
  <polygon class="fil5 str1" points="17477,11459 16842,12559 18197,12729 "/>
  <polygon class="fil5 str1" points="14747,11564 14133,12199 16842,12559 "/>
  <polygon class="fil5 str1" points="19488,7754 18239,6908 18916,7987 "/>
  <polygon class="fil5 str1" points="19954,8559 20821,9935 19615,9109 "/>
  <polygon class="fil1 str1" points="14874,6167 14069,6590 15847,8008 "/>
  <polygon class="fil1 str1" points="13569,12199 14133,12199 13844,10518 "/>
  <polygon class="fil1 str1" points="13844,10518 13963,8368 13739,8368 "/>
 </g>
</svg>
